<?xml version="1.0" standalone="no"?>
<!DOCTYPE svg PUBLIC "-//W3C//DTD SVG 20010904//EN"
 "http://www.w3.org/TR/2001/REC-SVG-20010904/DTD/svg10.dtd">
<svg version="1.0" xmlns="http://www.w3.org/2000/svg"
 width="1024.000000pt" height="1024.000000pt" viewBox="0 0 1024.000000 1024.000000"
 preserveAspectRatio="xMidYMid meet">

<g transform="translate(0.000000,1024.000000) scale(0.100000,-0.100000)"
fill="#000000" stroke="none">
<path d="M2275 7546 c-91 -29 -182 -100 -229 -180 -60 -103 -56 50 -54 -2266
l3 -2115 27 -58 c58 -123 185 -218 319 -237 92 -14 5475 -13 5558 0 133 22
247 108 305 230 l31 65 0 2145 0 2145 -27 57 c-37 80 -107 152 -187 191 l-66
32 -2820 2 c-2254 1 -2828 -1 -2860 -11z m5403 -1938 c1 -764 -1 -1388 -5
-1388 -4 0 -235 227 -513 504 -478 477 -508 505 -565 526 -42 16 -82 22 -133
22 -140 0 -114 22 -852 -716 l-654 -655 -346 342 c-387 385 -390 387 -525 395
-65 3 -91 0 -140 -18 -58 -21 -88 -50 -722 -683 l-663 -662 0 1863 0 1862
2558 -2 2557 -3 3 -1387z"/>
<path d="M3985 6429 c-163 -20 -303 -110 -396 -252 -61 -94 -84 -174 -84 -297
0 -123 23 -203 84 -297 233 -356 759 -337 954 35 211 400 -110 866 -558 811z"/>
</g>
</svg>
