<?xml version="1.0" encoding="UTF-8"?> <svg xmlns="http://www.w3.org/2000/svg" id="_Слой_2" data-name="Слой 2" viewBox="0 0 82.15 82.5"> <defs> <style> .cls-1 { stroke-linecap: round; } .cls-1, .cls-2 { fill: none; stroke: #2765af; stroke-miterlimit: 10; stroke-width: 4.5px; } .cls-3 { fill: #2765af; } </style> </defs> <g id="_Слой_1-2" data-name="Слой 1"> <g id="i1.2"> <g> <circle class="cls-2" cx="32.25" cy="32.25" r="30"></circle> <line class="cls-1" x1="53.9" y1="55.25" x2="79.9" y2="80.25"></line> <path class="cls-1" d="M40.79,33.09l-8.38,15.27c-.07,.13-.25,.13-.32,0l-8.35-15.23s-2.1-4.13-2.18-4.47c-.29-1.29-.37-2.66-.15-4.11,.73-4.84,4.72-8.7,9.59-9.24,6.62-.73,12.23,4.42,12.23,10.89,0,.85-.1,1.67-.28,2.46-.16,1.09-2.15,4.43-2.15,4.43Z"></path> <path class="cls-3" d="M35.25,27.75c0,1.66-1.34,3-3,3s-3-1.34-3-3,1.34-3,3-3,3,1.34,3,3"></path> </g> </g> </g> </svg> 