<?xml version="1.0" encoding="UTF-8"?> <svg xmlns="http://www.w3.org/2000/svg" id="_Слой_2" data-name="Слой 2" viewBox="0 0 69.08 69.08"> <defs> <style> .cls-1 { fill: #2765af; } .cls-2 { fill: none; stroke: #2765af; stroke-linecap: round; stroke-linejoin: round; stroke-width: 4.5px; } </style> </defs> <g id="_Слой_1-2" data-name="Слой 1"> <g id="i8"> <g id="graph-5-graph-5"> <polyline class="cls-2" points="66.83 66.83 2.25 66.83 2.25 2.25"></polyline> <path class="cls-1" d="M27.39,29.63c-.71,0-1.28,.57-1.28,1.28v26.34c0,.71,.57,1.28,1.28,1.28h5.85c.71,0,1.28-.57,1.28-1.28V30.91c0-.71-.57-1.28-1.28-1.28h-5.85Z"></path> <path class="cls-1" d="M12.75,41.34c-.71,0-1.28,.57-1.28,1.28v14.63c0,.71,.57,1.28,1.28,1.28h5.86c.7,0,1.28-.57,1.28-1.28v-14.63c0-.7-.57-1.28-1.28-1.28h-5.86Z"></path> <path class="cls-1" d="M42.02,41.34c-.7,0-1.28,.57-1.28,1.28v14.63c0,.71,.57,1.28,1.28,1.28h5.85c.71,0,1.28-.57,1.28-1.28v-14.63c0-.7-.57-1.28-1.28-1.28h-5.85Z"></path> <path class="cls-1" d="M56.66,26.71c-.71,0-1.28,.57-1.28,1.28v29.27c0,.71,.57,1.28,1.28,1.28h5.85c.7,0,1.28-.57,1.28-1.28V27.98c0-.71-.57-1.28-1.28-1.28h-5.85Z"></path> <path class="cls-2" d="M60.61,10.03l-16.9,17.05-10.68-10.71c-.47-.47-1.22-.5-1.73-.07L10.81,33.62"></path> </g> </g> </g> </svg> 