<?xml version="1.0" encoding="UTF-8"?> <!-- Generator: Adobe Illustrator 22.1.0, SVG Export Plug-In . SVG Version: 6.00 Build 0) --> <svg xmlns="http://www.w3.org/2000/svg" xmlns:xlink="http://www.w3.org/1999/xlink" id="Слой_1" x="0px" y="0px" viewBox="0 0 138.6 122.9" style="enable-background:new 0 0 138.6 122.9;" xml:space="preserve"> <style type="text/css"> .st0{fill:none;stroke:#2765AF;stroke-width:6;stroke-linecap:round;stroke-linejoin:round;} .st1{fill:#2765AF;} </style> <g id="_2131124111056"> <line class="st0" x1="98.1" y1="92.1" x2="25.1" y2="92.1"></line> <path class="st0" d="M25.1,92.1C15,92.1,6.7,83.9,6.7,73.7"></path> <line class="st0" x1="6.7" y1="73.7" x2="6.7" y2="24.7"></line> <path class="st0" d="M6.7,24.7C6.7,14.5,15,6.3,25.1,6.3"></path> <line class="st0" x1="25.1" y1="6.3" x2="113" y2="6.3"></line> <path class="st0" d="M113,6.3c10.1,0,18.4,8.3,18.4,18.4"></path> <line class="st0" x1="131.4" y1="24.7" x2="131.4" y2="58.1"></line> <line class="st0" x1="69.1" y1="94.2" x2="69.1" y2="116.7"></line> <line class="st0" x1="114.9" y1="116.7" x2="23.3" y2="116.7"></line> </g> <path class="st1" d="M88.1,50l5.8-2.1l-1.3-7h-6.1c-0.7-1.7-1.7-3.3-3.1-4.9l2.3-5.5l-5.8-4l-4.3,4.1c-2-0.8-3.8-1.1-5.6-1.2 l-2.1-5.8l-7,1.2L60.5,31c-1.7,0.7-3.3,1.7-4.9,3.1l-5.5-2.3l-4.1,5.8l4.4,4.3c-0.8,2-1.1,3.8-1.2,5.6l-5.8,2.1l1.2,7l6.2,0 c0.7,1.7,1.7,3.3,3.1,4.9L51.7,67l5.8,4.1l4.4-4.1c2,0.8,3.8,1.1,5.6,1.2l2.1,5.8l7-1.3l0-6.1c1.7-0.7,3.3-1.7,4.9-3.1l5.5,2.3 l4.1-5.8L87,55.6C87.7,53.7,88.1,51.8,88.1,50z M56.9,50.3c-0.8-6.5,3.8-12.5,10.3-13.3c6.5-0.8,12.5,3.8,13.3,10.3 c0.8,6.5-3.8,12.5-10.3,13.3C63.7,61.4,57.8,56.8,56.9,50.3z"></path> <path class="st1" d="M108.5,68.1l0,11.1c0,0.4,0.5,0.5,0.6,0L109,68.1l-0.3-14.4c0-2,1.7-3.6,3.7-3.6c2,0,3.6,1.6,3.6,3.6 c0,4.8,0,9.5,0,14.4l0.4-0.2l15.6,2.8c2.7,0.5,3.6,3.6,3.5,6.2l-0.3,14.2c-0.1,1.7-1.4,3.1-3.2,3.2c-20.4,0.5-16.6,4.5-28.3-11 C96.6,74,108.4,66.3,108.5,68.1z"></path> </svg> 