<?xml version="1.0" encoding="UTF-8"?> <!-- Creator: CorelDRAW X7 --> <svg xmlns="http://www.w3.org/2000/svg" xmlns:xlink="http://www.w3.org/1999/xlink" xml:space="preserve" width="83.2602mm" height="68.1017mm" style="shape-rendering:geometricPrecision; text-rendering:geometricPrecision; image-rendering:optimizeQuality; fill-rule:evenodd; clip-rule:evenodd" viewBox="0 0 17820 14575"> <defs> <style type="text/css"> <![CDATA[ .fil1 {fill:#7E71B1;fill-rule:nonzero} .fil0 {fill:#009846;fill-rule:nonzero} ]]> </style> </defs> <g id="Слой_x0020_1"> <metadata id="CorelCorpID_0Corel-Layer"></metadata> <path class="fil0" d="M8910 0c147,0 308,4 482,11 175,8 335,18 480,31 145,13 304,30 476,53 172,23 330,47 473,72l738 132 -632 1135 -370 -63c-126,-21 -261,-41 -405,-59 -137,-17 -274,-31 -412,-43 -150,-12 -288,-21 -413,-27 -122,-5 -261,-7 -417,-7 -534,0 -1050,41 -1545,119 -506,80 -999,201 -1473,358 -482,159 -935,353 -1355,578 -428,228 -824,488 -1183,775 -355,284 -674,594 -954,926 -274,327 -510,675 -701,1041 -183,352 -325,722 -421,1107 -93,371 -142,755 -142,1149 0,394 49,778 142,1148 96,385 238,756 421,1107 191,366 427,714 701,1041 280,333 599,643 954,926 63,51 140,109 231,176 74,55 157,113 248,174 88,59 173,115 256,167 91,56 177,108 259,154l459 262 -592 1064 -469 -273c-93,-53 -188,-110 -283,-170 -97,-61 -188,-121 -274,-180 -83,-56 -171,-119 -262,-186 -78,-58 -164,-124 -258,-200 -420,-335 -798,-704 -1129,-1101 -330,-397 -613,-820 -842,-1265 -227,-442 -403,-907 -521,-1388 -116,-473 -177,-960 -177,-1456 0,-497 61,-984 177,-1456 118,-482 294,-946 521,-1389 229,-445 512,-868 842,-1264 331,-398 709,-766 1129,-1102 414,-331 866,-629 1351,-888 482,-258 994,-479 1528,-656 522,-173 1072,-307 1646,-398 560,-88 1133,-135 1716,-135zm5164 1341c93,54 187,111 283,171 97,61 188,120 274,179 83,57 170,119 262,187 77,57 163,124 258,199 419,336 798,704 1129,1102 330,396 612,819 841,1264 228,443 404,907 522,1389 116,472 177,959 177,1456 0,496 -61,983 -177,1456 -118,481 -294,946 -522,1388 -229,445 -511,868 -841,1265 -331,397 -710,766 -1129,1101 -414,331 -867,629 -1351,888 -483,259 -994,479 -1528,656 -522,173 -1073,307 -1646,398 -560,89 -1134,135 -1716,135 -147,0 -308,-4 -482,-11 -175,-8 -335,-18 -481,-31 -145,-12 -303,-30 -476,-53 -172,-22 -329,-47 -472,-72l-738 -131 631 -1136 370 63c126,21 261,41 405,59 137,17 275,32 413,43 150,13 287,22 413,27 121,5 260,8 417,8 534,0 1050,-41 1544,-120 507,-80 1000,-200 1474,-357 481,-160 935,-354 1355,-578 428,-229 824,-489 1183,-776 354,-283 674,-593 953,-926 275,-326 510,-675 701,-1041 184,-351 326,-722 422,-1107 93,-370 141,-754 141,-1148 0,-394 -48,-778 -141,-1149 -96,-385 -238,-755 -422,-1107 -191,-366 -426,-714 -701,-1041 -279,-332 -599,-642 -953,-926 -63,-50 -140,-109 -231,-176 -75,-54 -158,-112 -249,-174 -87,-59 -172,-115 -255,-166 -92,-57 -178,-108 -259,-155l-459 -261 591 -1064 470 272z"></path> <path class="fil1" d="M7948 3291l0 -751 1956 0 0 747c1184,85 2347,437 3194,1133 790,650 1302,1587 1302,2868 0,1275 -507,2197 -1294,2836 -850,689 -2022,1032 -3218,1126l0 786 -1972 0 0 -788c-1189,-97 -2365,-426 -3216,-1110 -778,-624 -1281,-1530 -1281,-2802 0,-1290 525,-2219 1305,-2864 883,-731 2094,-1083 3224,-1181zm3685 2136c-454,-430 -1087,-651 -1745,-725l0 5138c657,-90 1287,-325 1742,-755 427,-403 703,-991 703,-1810 0,-849 -275,-1446 -700,-1848zm-5441 3639c451,425 1077,669 1740,769l0 -5130c-621,79 -1265,307 -1735,754 -425,402 -711,993 -711,1829 0,793 276,1374 706,1778z"></path> </g> </svg> 