<?xml version="1.0" encoding="UTF-8"?> <!-- Creator: CorelDRAW X7 --> <svg xmlns="http://www.w3.org/2000/svg" xmlns:xlink="http://www.w3.org/1999/xlink" xml:space="preserve" width="22.9663mm" height="22.9622mm" style="shape-rendering:geometricPrecision; text-rendering:geometricPrecision; image-rendering:optimizeQuality; fill-rule:evenodd; clip-rule:evenodd" viewBox="0 0 335 335"> <defs> <style type="text/css"> <![CDATA[ .str0 {stroke:#FEFEFE;stroke-width:1.11244} .fil1 {fill:#FEFEFE} .fil0 {fill:#FEFEFE;fill-rule:nonzero} ]]> </style> </defs> <g id="Слой_x0020_1"> <metadata id="CorelCorpID_0Corel-Layer"></metadata> <path class="fil0" d="M281 160l41 -24c-1,-4 -2,-8 -3,-13 -1,-4 -3,-8 -4,-12l-57 2 28 -50c-3,-3 -6,-6 -9,-9 -4,-3 -7,-6 -10,-9l-49 30 0 -57c-2,0 -3,-1 -5,-1 -2,-1 -5,-2 -8,-3l0 0c-3,0 -6,-1 -8,-1 -2,-1 -4,-1 -5,-1l-27 50 -29 -49c-4,1 -8,2 -13,3 -4,2 -8,3 -12,5l2 57 -50 -29c-3,3 -6,6 -9,10 -3,3 -6,6 -9,10l30 48 -57 0c0,2 -1,3 -1,5 -1,3 -2,5 -3,8 0,3 -1,6 -1,9 -1,1 -1,3 -1,4l50 27 -49 29c1,4 2,9 3,13 2,4 3,8 5,12l57 -2 -29 50c3,3 6,6 10,10 3,3 6,6 10,8l48 -30 0 57c2,1 3,1 5,2 3,0 5,1 8,2l0 0c3,0 6,1 9,2 1,0 3,0 4,0l27 -50 29 49c4,-1 9,-2 13,-3 4,-1 8,-3 13,-4l-3 -57 50 28c3,-3 6,-6 10,-9 3,-4 6,-7 8,-10l-30 -49 57 0c1,-2 1,-3 2,-5 0,-2 1,-5 2,-8 1,-3 1,-6 2,-8 0,-2 0,-3 0,-5l-50 -27 8 -5zm50 -16l-36 21 40 21 0 4c-1,3 -1,6 -2,9 0,3 -1,6 -2,9l0 0c0,2 -1,5 -2,8 -1,3 -2,6 -3,9l-1 4 -45 0 24 38 -3 3c-3,5 -7,10 -12,14 -4,4 -8,9 -13,13l-3 2 -39 -22 2 45 -4 1c-5,3 -11,5 -17,6 -6,2 -12,4 -18,5l-4 0 -22 -39 -22 40 -3 0c-3,-1 -6,-1 -9,-2 -3,0 -6,-1 -9,-2 -3,0 -6,-1 -9,-2 -3,-1 -6,-2 -9,-3l-3 -1 -1 -45 -38 24 -3 -3c-5,-3 -9,-7 -14,-12 -4,-4 -8,-8 -12,-13l-3 -3 23 -39 -46 2 -1 -4c-2,-5 -4,-11 -6,-17 -2,-6 -3,-12 -4,-18l-1 -4 39 -22 -40 -22 0 -3c1,-3 1,-6 2,-9 0,-3 1,-6 2,-9 1,-3 1,-6 2,-9 1,-3 2,-6 3,-9l1 -3 46 -1 -24 -38 2 -3c4,-5 8,-9 12,-14 4,-4 8,-8 13,-12l3 -3 39 23 -1 -46 3 -1c6,-2 11,-4 17,-6 6,-2 12,-3 18,-4l4 -1 23 39 21 -40 4 0c3,1 6,1 9,2 3,0 6,1 9,2 3,1 6,1 8,2 3,1 6,2 9,3l4 1 0 46 38 -24 3 2c5,4 10,8 14,12 5,4 9,8 13,13l2 3 -22 39 45 -1 1 3c3,6 5,11 6,17 2,6 4,12 5,18l0 4 -3 2z"></path> <path class="fil1 str0" d="M235 141c-1,-2 -2,-3 -4,-4 0,0 -1,0 -1,0l-50 5 34 -65c1,-1 1,-2 1,-2 0,-2 0,-4 -1,-5 0,-2 -1,-2 -3,-3l-38 -8c-2,-1 -3,0 -4,0 -1,1 -2,2 -2,3l-48 118c-1,2 -1,4 0,6 1,1 2,2 4,2 0,0 1,1 1,0l51 -4 -47 115c-1,2 -1,3 0,5 0,1 1,2 2,3 1,1 1,1 2,1 2,0 4,0 5,-3l97 -158c2,-2 2,-4 1,-6l0 0z"></path> <path class="fil0" d="M216 91c6,4 12,8 16,13 6,6 11,12 15,19l-13 1c-3,-4 -6,-8 -10,-12 -4,-3 -8,-7 -13,-10l5 -11zm39 50c3,9 4,18 4,28 0,25 -10,48 -27,65 -10,10 -24,19 -39,23l8 -16c9,-4 16,-9 23,-16 14,-14 23,-34 23,-56 0,-4 0,-8 -1,-12l9 -16zm-118 114c-13,-4 -25,-12 -34,-21 -17,-17 -27,-40 -27,-65 0,-26 10,-48 27,-65 13,-13 30,-23 50,-26l-5 14c-14,3 -27,11 -37,20 -14,15 -23,35 -23,57 0,22 9,42 23,56 9,8 19,15 31,19l-5 11z"></path> </g> </svg> 