<?xml version="1.0" encoding="UTF-8"?> <svg xmlns="http://www.w3.org/2000/svg" id="_Слой_2" data-name="Слой 2" viewBox="0 0 80.48 77.9"> <defs> <style> .cls-1 { fill: none; stroke: #2765af; stroke-linecap: round; stroke-linejoin: round; stroke-width: 4.5px; } </style> </defs> <g id="_Слой_1-2" data-name="Слой 1"> <g id="i10"> <g> <path class="cls-1" d="M32.75,70.83c2.98-2.98,4.82-7.09,4.82-11.64s-1.84-8.67-4.82-11.64h0c-2.97-2.98-7.09-4.82-11.64-4.82s-8.67,1.84-11.64,4.82h0c-2.98,2.98-4.82,7.1-4.82,11.65s1.84,8.67,4.82,11.64h0c2.98,2.98,7.09,4.82,11.64,4.82s8.67-1.84,11.64-4.82h0Z"></path> <path class="cls-1" d="M33.05,10.46H13.29c-.86,.01-1.68,.18-2.42,.48l-.05,.02c-.77,.32-1.46,.78-2.05,1.35l-.06,.06c-.6,.6-1.09,1.32-1.42,2.11-.31,.76-.49,1.59-.49,2.47h0v16.99"></path> <path class="cls-1" d="M12.14,59.19c0-2.47,1-4.72,2.63-6.34l.07-.07c1.62-1.58,3.83-2.56,6.27-2.56"></path> <path class="cls-1" d="M73.33,30.36c2.98-2.98,4.82-7.09,4.82-11.64s-1.84-8.67-4.82-11.64h0c-2.97-2.98-7.09-4.82-11.64-4.82s-8.67,1.84-11.64,4.82h0c-2.98,2.98-4.82,7.1-4.82,11.65s1.84,8.67,4.82,11.64h0c2.98,2.98,7.09,4.82,11.64,4.82s8.67-1.84,11.64-4.82h0Z"></path> <path class="cls-1" d="M52.73,18.71h0c0-2.47,1.01-4.71,2.63-6.33h0c1.62-1.62,3.86-2.63,6.33-2.63h0"></path> <path class="cls-1" d="M30.78,15.01l4.55-4.55-4.55-4.55"></path> <path class="cls-1" d="M2.25,33.95l4.55,4.55,4.55-4.55"></path> <path class="cls-1" d="M49.41,69.25h18.49c.82-.01,1.6-.19,2.31-.52,.74-.34,1.42-.84,1.98-1.45h0c.56-.62,1.01-1.36,1.32-2.18,.29-.78,.46-1.64,.46-2.55h0v-17.51"></path> <path class="cls-1" d="M49.41,64.56l-4.26,4.69,4.26,4.69"></path> <path class="cls-1" d="M78.23,46.04l-4.26-4.69-4.26,4.69"></path> </g> </g> </g> </svg> 