<?xml version="1.0" encoding="UTF-8"?> <svg xmlns="http://www.w3.org/2000/svg" id="_Слой_2" data-name="Слой 2" viewBox="0 0 72.82 75.56"> <defs> <style> .cls-1 { fill: none; fill-rule: evenodd; stroke: #2765af; stroke-linecap: round; stroke-linejoin: round; stroke-width: 4.5px; } </style> </defs> <g id="_Слой_1-2" data-name="Слой 1"> <g id="i7"> <path id="_-Icon-Color" data-name="🔹-Icon-Color" class="cls-1" d="M57.22,49.04V31.71c0-10.64-5.68-19.55-15.6-21.91v-2.36c0-2.88-2.36-5.2-5.23-5.2s-5.16,2.32-5.16,5.2v2.36c-9.95,2.36-15.6,11.23-15.6,21.91v17.33l-4.51,4.47c-2.18,2.18-.66,5.93,2.43,5.93H59.2c3.08,0,4.64-3.74,2.46-5.93l-4.44-4.47Zm-20.83,24.26c3.81,0,6.93-3.12,6.93-6.93h-13.86c0,3.81,3.08,6.93,6.93,6.93ZM13.58,4.95C7.66,10.36,3.57,17.71,2.25,25.96m68.32-.03c-1.32-8.22-5.37-15.53-11.27-20.97"></path> </g> </g> </svg> 