<?xml version="1.0" encoding="UTF-8"?> <!-- Creator: CorelDRAW X7 --> <svg xmlns="http://www.w3.org/2000/svg" xmlns:xlink="http://www.w3.org/1999/xlink" xml:space="preserve" width="25.2251mm" height="16.4954mm" style="shape-rendering:geometricPrecision; text-rendering:geometricPrecision; image-rendering:optimizeQuality; fill-rule:evenodd; clip-rule:evenodd" viewBox="0 0 393 257"> <defs> <style type="text/css"> <![CDATA[ .fil1 {fill:#FEFEFE} .fil0 {fill:#FEFEFE;fill-rule:nonzero} ]]> </style> </defs> <g id="Слой_x0020_1"> <metadata id="CorelCorpID_0Corel-Layer"></metadata> <g id="_2654771933808"> <path class="fil0" d="M297 157c6,0 13,1 19,4 6,2 11,6 16,10 5,5 8,11 11,17 2,6 4,12 4,19 0,7 -2,13 -4,19 -3,6 -6,12 -11,16 -5,5 -10,9 -16,11 -6,3 -13,4 -19,4 -7,0 -14,-1 -20,-4 -6,-2 -11,-6 -16,-11 -4,-4 -8,-10 -11,-16 -2,-6 -4,-12 -4,-19 0,-7 2,-13 4,-19 3,-6 7,-12 11,-17 5,-4 10,-8 16,-10 6,-3 13,-4 20,-4zm23 27c-3,-3 -7,-6 -11,-7 -4,-2 -8,-3 -12,-3 -5,0 -9,1 -13,3 -4,1 -8,4 -11,7 -3,3 -5,6 -7,10 -1,4 -2,8 -2,13 0,4 1,9 2,12 2,4 4,8 7,11 3,3 7,5 11,7 4,2 8,3 13,3 4,0 8,-1 12,-3 4,-2 8,-4 11,-7 3,-3 5,-7 7,-11 1,-3 2,-8 2,-12 0,-5 -1,-9 -2,-13 -2,-4 -4,-7 -7,-10z"></path> <path class="fil0" d="M341 54l0 0c-9,-11 -13,-16 -36,-25 -9,-4 -20,-7 -32,-9 -11,-2 -23,-3 -37,-2l-1 0 -18 -18 5 0c16,0 33,1 49,3 16,2 31,6 40,10 12,5 22,11 30,17 10,8 16,16 20,23l2 4 -21 -3 -1 0z"></path> <path class="fil0" d="M50 157c7,0 13,1 19,4 6,2 12,6 17,10 4,5 8,11 10,17 3,6 4,12 4,19 0,7 -1,13 -4,19 -2,6 -6,12 -10,16 -5,5 -11,9 -17,11 -6,3 -12,4 -19,4 -7,0 -13,-1 -19,-4 -6,-2 -12,-6 -16,-11 -5,-4 -9,-10 -11,-16 -3,-6 -4,-12 -4,-19 0,-7 1,-13 4,-19 2,-6 6,-12 11,-17 4,-4 10,-8 16,-10 6,-3 12,-4 19,-4zm23 27c-3,-3 -6,-6 -10,-7 -4,-2 -8,-3 -13,-3 -4,0 -9,1 -12,3 -4,1 -8,4 -11,7 -3,3 -6,6 -7,10 -2,4 -3,8 -3,13 0,4 1,9 3,12 1,4 4,8 7,11 3,3 7,5 11,7 3,2 8,3 12,3 5,0 9,-1 13,-3 4,-2 7,-4 10,-7 3,-3 6,-7 7,-11 2,-3 3,-8 3,-12 0,-5 -1,-9 -3,-13 -1,-4 -4,-7 -7,-10z"></path> <path class="fil0" d="M108 219l131 0c2,0 4,1 5,2 2,2 2,4 2,6 0,2 0,4 -2,5 -1,1 -3,2 -5,2l-131 0c-2,0 -4,-1 -5,-2 -1,-1 -2,-3 -2,-5 0,-2 1,-4 2,-6 1,-1 3,-2 5,-2z"></path> <path class="fil0" d="M167 1c-21,0 -39,8 -53,21 -13,13 -21,32 -21,52l0 0c0,7 0,13 2,19 1,6 4,11 7,17 13,22 52,79 65,97 12,-18 51,-75 64,-98 3,-5 6,-11 7,-16 2,-6 2,-13 2,-19l0 0c0,-20 -8,-39 -21,-52 -14,-13 -32,-21 -52,-21zm-1 107c-10,0 -19,-4 -25,-10 -7,-7 -11,-16 -11,-26 0,-10 4,-19 11,-25 6,-7 15,-11 25,-11 10,0 19,4 26,11 6,6 10,15 10,25 0,10 -4,19 -10,26 -7,6 -16,10 -26,10z"></path> <path class="fil0" d="M282 52c5,1 12,1 19,1 28,2 62,4 69,23 0,2 2,6 3,10 10,25 26,68 18,98 -5,17 -14,29 -22,34 -3,1 -6,2 -9,3 -3,0 -5,-1 -7,-3 -3,-2 -4,-5 -4,-10l0 -2 2 0c10,0 16,-5 21,-12 4,-7 6,-17 6,-28 1,-6 0,-13 -1,-20l-6 0c-10,1 -27,1 -44,-1 -18,-2 -36,-8 -47,-18 -12,-12 -11,-29 -9,-46 0,-9 1,-17 0,-25l0 -3 -18 -4 29 3zm95 91c-1,-4 -2,-8 -2,-12 -7,-28 -21,-55 -36,-59l-67 -19 16 10 0 1c0,8 0,14 0,20 0,20 0,28 6,33 4,4 11,6 25,9 13,4 30,8 53,16l5 1z"></path> <rect class="fil1" x="5" y="128" width="91.7245" height="15.2882" rx="9" ry="11"></rect> </g> </g> </svg> 