<?xml version="1.0" encoding="UTF-8"?> <!-- Creator: CorelDRAW X7 --> <svg xmlns="http://www.w3.org/2000/svg" xmlns:xlink="http://www.w3.org/1999/xlink" xml:space="preserve" width="25.9277mm" height="19.2622mm" style="shape-rendering:geometricPrecision; text-rendering:geometricPrecision; image-rendering:optimizeQuality; fill-rule:evenodd; clip-rule:evenodd" viewBox="0 0 414 308"> <defs> <style type="text/css"> <![CDATA[ .fil0 {fill:#FEFEFE} .fil1 {fill:#FEFEFE;fill-rule:nonzero} ]]> </style> </defs> <g id="Слой_x0020_1"> <metadata id="CorelCorpID_0Corel-Layer"></metadata> <g id="_2654479743936"> <path class="fil0" d="M187 189c30,4 57,32 52,67 -5,31 -32,56 -68,51 -29,-3 -56,-32 -51,-67 5,-30 31,-55 67,-51zm-3 29c15,3 27,16 25,35 -2,14 -17,28 -34,25 -40,-7 -29,-66 9,-60z"></path> <path class="fil0" d="M192 102l0 80c-16,-2 -27,-2 -44,7 -5,2 -9,5 -12,8 -3,3 -8,9 -11,10 -7,0 -15,1 -20,-2 -5,-4 -6,-7 -8,-15l-19 -73c-1,-5 -4,-14 -3,-19 2,-6 7,-9 14,-9l89 0c10,0 14,2 14,13zm-71 5c9,2 6,16 6,26 0,11 0,22 0,32 0,9 2,25 -5,28 -3,2 -10,2 -13,0 -4,-2 -4,-7 -6,-12 -4,-17 -9,-34 -13,-51 -2,-6 -8,-21 -1,-23 2,-1 29,-1 32,0zm64 8l0 27c0,7 -2,9 -8,9l-34 0c-11,0 -9,-8 -9,-28 0,-20 -3,-17 43,-17 7,0 8,2 8,9z"></path> <path class="fil0" d="M326 271l-75 -22c2,-11 1,-20 -6,-31l159 0c-1,5 -3,11 -4,16 -2,5 -3,10 -8,10 -10,1 -30,-17 -53,2 -8,7 -10,13 -13,25z"></path> <path class="fil0" d="M379 247c14,7 22,27 12,44 -8,13 -26,21 -43,12 -14,-8 -22,-27 -13,-44 8,-13 27,-22 44,-12zm-5 10c23,14 2,49 -21,35 -22,-14 -3,-48 21,-35z"></path> <path class="fil1" d="M80 209l-44 0 -11 19 0 1 -11 19 11 19 0 0 11 19 44 0 23 -38 -23 -39zm-22 -13l26 0 0 0c2,0 5,1 6,4l26 44c1,2 1,5 0,7l-26 44c-1,2 -3,4 -6,4l-52 0 0 0c-2,0 -4,-1 -5,-3l-13 -23 0 0 -13 -22c-1,-2 -1,-5 0,-7l13 -22 0 0 13 -22c1,-2 3,-4 5,-4l26 0z"></path> <path class="fil1" d="M255 0l112 0c6,0 11,1 16,3l-14 16c-1,0 -1,0 -2,0l-112 0c-5,0 -10,2 -14,6 -4,3 -6,8 -6,14l0 112c0,6 2,10 6,14 4,4 9,6 14,6l112 0c6,0 11,-2 14,-6 4,-4 6,-8 6,-14l0 -39 19 -23 0 62c0,11 -4,20 -11,27 -7,8 -17,12 -28,12l-112 0c-11,0 -20,-4 -27,-12 -7,-7 -12,-16 -12,-27l0 -112c0,-11 5,-21 12,-28 7,-7 16,-11 27,-11z"></path> <path class="fil0" d="M316 157l-57 -65c-6,-7 -6,-19 0,-26 7,-7 17,-7 23,0l34 39 71 -81c6,-7 16,-7 23,0 6,7 6,19 0,26l-94 107 0 0z"></path> <path class="fil0" d="M58 236c1,0 2,1 3,1l8 -13c1,-2 3,-3 5,-2 1,1 2,4 1,5l-8 13c1,1 1,3 2,4l15 0c2,0 4,1 4,3 0,2 -2,4 -4,4l-15 0c-1,1 -1,2 -2,3l9 13c1,2 0,4 -1,5 -2,1 -4,1 -5,-1l-9 -13c-1,1 -2,1 -3,1 -1,0 -2,0 -2,-1l-9 14c-1,1 -3,2 -4,1 -2,-1 -2,-3 -1,-5l8 -13c-1,-1 -2,-3 -2,-4l-16 0c-2,0 -3,-1 -3,-3 0,-2 1,-4 3,-4l16 0c0,-1 1,-2 1,-3l-8 -13c-1,-2 -1,-4 1,-5 1,-1 3,0 4,1l9 13c1,0 2,-1 3,-1z"></path> </g> </g> </svg> 