<?xml version="1.0" encoding="UTF-8"?> <svg xmlns="http://www.w3.org/2000/svg" id="_Слой_2" data-name="Слой 2" viewBox="0 0 69.03 69.18"> <defs> <style> .cls-1 { fill: none; stroke: #2765af; stroke-linejoin: round; stroke-width: 4.5px; } .cls-2 { fill: #2765af; } </style> </defs> <g id="_Слой_1-2" data-name="Слой 1"> <g id="i4.2"> <g id="icon4"> <path class="cls-1" d="M27.22,63.95H13.41c-6.16,0-11.16-5-11.16-11.16V13.41C2.25,7.25,7.25,2.25,13.41,2.25H52.78c6.16,0,11.16,5,11.16,11.16v15.09"></path> <circle class="cls-2" cx="13.05" cy="13.59" r="3.52"></circle> <circle class="cls-2" cx="23.7" cy="13.59" r="3.52"></circle> <path class="cls-1" d="M65.36,56.69c-1.7,4.21-4.52,6.73-6,7.87-.06,.05-.13,.1-.21,.16-.1,.07-.2,.16-.32,.23-4.48,2.86-15.5,2.35-20.39,.15-6.16-2.76-10.38-12.96-8.34-20.48,1.15-4.21,3.76-6.94,5.17-8.22,.66-.2,4.11,6.36,5.04,6.49,1.75-.23,6.63-18.83,7.56-18.42,19.67,8.61,20.78,24.05,17.49,32.21Z"></path> <path class="cls-1" d="M38.66,64.29c-1.02-6.88,9.81-18.85,10.64-18.85,.57,0,10.62,12.79,9.53,19.52"></path> </g> </g> </g> </svg> 