<?xml version="1.0" encoding="UTF-8"?> <!-- Generator: Adobe Illustrator 22.1.0, SVG Export Plug-In . SVG Version: 6.00 Build 0) --> <svg xmlns="http://www.w3.org/2000/svg" xmlns:xlink="http://www.w3.org/1999/xlink" id="Слой_1" x="0px" y="0px" viewBox="0 0 98.3 120.4" style="enable-background:new 0 0 98.3 120.4;" xml:space="preserve"> <style type="text/css"> .st0{fill:#2765AF;} </style> <path class="st0" d="M84.2,92.3l4.1-1.6l-0.8-4.9h-4.4c-0.5-1.2-1.1-2.4-2.2-3.5l1.7-3.9l-4.1-2.8l-3.1,2.8c-1.5-0.5-2.7-0.8-4-0.8 l-1.6-4.1l-4.9,0.9l-0.2,4.4c-1.2,0.5-2.4,1.1-3.5,2.2l-3.9-1.6l-2.8,4.1l3.2,2.9c-0.6,1.4-0.9,2.7-0.9,4L52.8,92l0.9,5h4.3 c0.6,1.1,1.2,2.3,2.2,3.4l-1.6,3.9l4.1,2.8l3.1-2.8c1.4,0.6,2.7,0.8,4,0.8l1.5,4.1l5-0.8v-4.4c1.1-0.5,2.4-1.1,3.4-2.2l3.9,1.7 l2.8-4.1l-2.8-3.1C84,94.8,84.2,93.5,84.2,92.3z M71.9,101.1c-5.4,0.7-10.3-3.1-11-8.5c-0.7-5.4,3.1-10.3,8.5-11 c5.3-0.7,10.3,3.1,11,8.5C81,95.5,77.3,100.5,71.9,101.1z"></path> <path class="st0" d="M96,21.7c0,20.5-4.1,39.5-10.9,55.4l-5.9-3.9c6.1-14.6,10-32.6,10-51.5v-2c0-0.3,0.1-0.8,0.1-2 c0-3.9-0.6-8-5.2-8H14.4C9,9.6,9,15.8,9,20.4c0.1,1.2,0.1,0.3,0.1,1.4c0,21,4.3,40.2,11.7,55.7c7,15.1,17,26.6,28.3,32.5 c2.6-1.2,5-2.8,7.4-4.6l5.3,4.2c-3.3,2.6-7.6,5.6-11.2,7.4l-1.5,0.7l-1.4-0.7c-13.5-6.5-25-19.5-33.1-36.5C7,64,2.3,43.7,2.3,21.7 c0-1.9,0-1,0-1.2C2.2,13.1,2.2,2.8,14.4,2.8h69.7C94.9,2.8,96,10.5,96,17.7c0,0.1,0,1.2,0,2.3C96,20.3,96,20.6,96,21.7z"></path> <path class="st0" d="M28.7,52.8c-1.4-1.7-1.1-4.3,0.6-5.7c1.7-1.5,4.3-1.2,5.7,0.6l11.6,13.9l19.5-29c1.2-1.9,3.7-2.4,5.6-1.1 c1.9,1.2,2.4,3.7,1.1,5.6L50.4,70.3c-0.2,0.5-0.6,0.8-0.9,1.1c-1.7,1.4-4.3,1.1-5.8-0.6L28.7,52.8z"></path> </svg> 