<?xml version="1.0" encoding="UTF-8"?> <!-- Creator: CorelDRAW X7 --> <svg xmlns="http://www.w3.org/2000/svg" xmlns:xlink="http://www.w3.org/1999/xlink" xml:space="preserve" width="22.2403mm" height="17.9189mm" style="shape-rendering:geometricPrecision; text-rendering:geometricPrecision; image-rendering:optimizeQuality; fill-rule:evenodd; clip-rule:evenodd" viewBox="0 0 316 255"> <defs> <style type="text/css"> <![CDATA[ .fil0 {fill:#FEFEFE} .fil1 {fill:#FEFEFE;fill-rule:nonzero} ]]> </style> </defs> <g id="Слой_x0020_1"> <metadata id="CorelCorpID_0Corel-Layer"></metadata> <g id="_2654874919504"> <path class="fil0" d="M238 233c10,0 18,-8 18,-17l0 -129c6,-2 11,-5 16,-10 18,-18 18,-48 0,-66 -5,-5 -10,-8 -15,-11l-1 35 -17 13 -17 -13 0 -35c-6,2 -11,6 -16,11 -18,18 -18,47 0,65 5,5 10,9 16,11l-1 128c0,10 7,18 17,18zm1 -49l0 0c4,0 8,3 8,8l0 19c0,5 -4,8 -8,8l0 0c-4,0 -8,-3 -8,-8l0 -19c0,-5 4,-8 8,-8z"></path> <path class="fil1" d="M169 32l-117 0c-11,0 -21,4 -28,11 -7,8 -11,17 -11,28l0 132c0,11 4,21 11,28 7,7 17,11 28,11l22 0 -9 13 -13 0c-14,0 -27,-6 -37,-15 -9,-10 -15,-23 -15,-37l0 -132c0,-14 6,-27 15,-37 10,-9 23,-15 37,-15l123 0 -6 13zm-69 210l164 0c11,0 21,-4 28,-11 7,-7 12,-17 12,-28l0 -132c0,-4 -1,-8 -2,-12l7 -15c5,8 7,17 7,27l0 132c0,14 -5,27 -15,37 -9,9 -22,15 -37,15l-172 0 8 -13z"></path> <g> <circle class="fil0" cx="52" cy="82" r="16"></circle> <rect class="fil0" x="81" y="76" width="101.769" height="11.8342"></rect> </g> <g> <circle class="fil0" cx="52" cy="133" r="16"></circle> <rect class="fil0" x="81" y="127" width="101.769" height="11.8342"></rect> </g> <g> <circle class="fil0" cx="52" cy="185" r="16"></circle> <rect class="fil0" x="81" y="179" width="101.769" height="11.8342"></rect> </g> </g> </g> </svg> 