<?xml version="1.0" encoding="UTF-8"?> <!-- Creator: CorelDRAW X7 --> <svg xmlns="http://www.w3.org/2000/svg" xmlns:xlink="http://www.w3.org/1999/xlink" xml:space="preserve" width="22.5282mm" height="17.5864mm" style="shape-rendering:geometricPrecision; text-rendering:geometricPrecision; image-rendering:optimizeQuality; fill-rule:evenodd; clip-rule:evenodd" viewBox="0 0 324 253"> <defs> <style type="text/css"> <![CDATA[ .fil0 {fill:#FEFEFE} .fil1 {fill:#FEFEFE;fill-rule:nonzero} ]]> </style> </defs> <g id="Слой_x0020_1"> <metadata id="CorelCorpID_0Corel-Layer"></metadata> <g id="_2654874904656"> <path class="fil0" d="M202 118c-6,24 -30,39 -54,33 -24,-6 -39,-30 -33,-54 6,-24 30,-39 54,-33 24,6 39,30 33,54zm18 -13l23 -13c-1,-6 -3,-12 -5,-18l-26 1 13 -22c-4,-5 -9,-9 -13,-13l-23 14 0 -26c-3,-1 -6,-2 -9,-3 -3,-1 -6,-1 -9,-2l-12 24 -13 -23c-6,1 -12,3 -18,5l1 26 -22 -13c-5,4 -9,9 -13,13l14 23 -26 0c-1,3 -2,6 -3,9 -1,3 -1,6 -2,9l24 12 -23 13c1,6 3,12 5,18l26 -1 -13 22c4,5 9,9 13,13l23 -14 0 26c3,1 6,2 9,3 3,1 6,1 9,2l12 -24 13 23c6,-1 12,-3 18,-5l-1 -26 22 13c5,-4 9,-9 13,-13l-14 -23 26 0c1,-3 2,-6 3,-9 1,-3 1,-6 2,-9l-24 -12z"></path> <path class="fil1" d="M42 0l196 0 -12 14 -184 0c-8,0 -15,3 -20,8 -5,5 -8,12 -8,20l0 136c0,8 3,15 8,20 5,5 12,8 20,8l23 0 -13 14 -10 0c-12,0 -22,-5 -30,-12 -7,-8 -12,-18 -12,-30l0 -136c0,-12 5,-22 12,-30 8,-7 18,-12 30,-12zm225 0l15 0c12,0 22,5 30,12 7,8 12,18 12,30l0 136c0,12 -5,22 -12,30 -8,7 -18,12 -30,12l-201 0 12 -14 189 0c8,0 15,-3 20,-8 5,-5 8,-12 8,-20l0 -136c0,-8 -3,-15 -8,-20 -5,-5 -12,-8 -20,-8l-27 0 12 -14z"></path> <path class="fil1" d="M169 226l0 12 36 0c4,0 7,3 7,7l0 1c0,4 -3,7 -7,7l-87 0c-4,0 -7,-3 -7,-7l0 -1c0,-4 3,-7 7,-7l37 0 0 -12 14 0z"></path> <g> <path class="fil0" d="M159 73l0 0c3,0 7,3 7,8l-2 38c0,3 -2,5 -5,5l0 0c-2,0 -4,-2 -5,-5l-2 -38c0,-6 5,-8 7,-8z"></path> <circle class="fil0" cx="159" cy="136" r="6"></circle> </g> </g> </g> </svg> 