<?xml version="1.0" encoding="UTF-8"?> <svg xmlns="http://www.w3.org/2000/svg" id="_Слой_2" data-name="Слой 2" viewBox="0 0 70.5 68.22"> <defs> <style> .cls-1, .cls-2 { stroke-miterlimit: 10; } .cls-1, .cls-2, .cls-3 { fill: none; stroke: #2765af; stroke-width: 4.5px; } .cls-1, .cls-3 { stroke-linecap: round; } .cls-3 { stroke-linejoin: round; } </style> </defs> <g id="_Слой_1-2" data-name="Слой 1"> <g id="i5.2"> <g id="icon5"> <path class="cls-2" d="M19.14,65.97h-6.97c-5.48,0-9.92-4.44-9.92-9.92V22.36H68.25V56.05c0,5.48-4.44,9.92-9.92,9.92h-6.97"></path> <path class="cls-3" d="M68.25,20.42c0-10.41-5.83-11.58-9.62-11.79-5.8-.31-17.46,.57-23.25,0-3.17-.31-7.02-2.72-9.08-4.17-1.6-1.12-3.44-1.85-5.38-2.06-4.31-.47-9.23,.34-9.23,.34C2.05,4.51,2.25,20.42,2.25,20.42"></path> <line class="cls-1" x1="34.96" y1="36.23" x2="34.96" y2="65.97"></line> <line class="cls-1" x1="44.92" y1="54.67" x2="35.25" y2="65.97"></line> <line class="cls-1" x1="25.28" y1="54.67" x2="34.96" y2="65.97"></line> </g> </g> </g> </svg> 