<?xml version="1.0" encoding="UTF-8"?> <svg xmlns="http://www.w3.org/2000/svg" id="_Слой_2" data-name="Слой 2" viewBox="0 0 76.29 82.08"> <defs> <style> .cls-1 { fill: #2765af; } .cls-2 { fill: none; stroke: #2765af; stroke-linecap: round; stroke-linejoin: round; stroke-width: 4.5px; } </style> </defs> <g id="_Слой_1-2" data-name="Слой 1"> <g id="i6"> <g id="Layer_2" data-name="Layer 2"> <path class="cls-2" d="M60.47,2.25c-3.59-.02-7.04,1.36-9.62,3.85h0c-5.06,4.8-5.27,12.8-.47,17.86,.15,.16,.31,.31,.47,.47l9.62,9.3,9.62-9.3c5.06-4.8,5.27-12.8,.47-17.86-.15-.16-.31-.31-.47-.47-2.59-2.49-6.04-3.87-9.62-3.85Z"></path> <path class="cls-2" d="M23.94,79.4c-.47,0-.94-.12-1.36-.35L3.61,68.2c-.84-.49-1.36-1.39-1.36-2.36V17.04c0-.97,.51-1.87,1.36-2.36,.84-.48,1.87-.48,2.71,0l18.98,10.84c.84,.49,1.36,1.39,1.36,2.36v48.8c0,.97-.51,1.87-1.36,2.36-.41,.23-.88,.36-1.36,.35Z"></path> <path class="cls-2" d="M44.27,68.2l-18.98,10.84c-.41,.23-.88,.36-1.36,.35-.47,0-.94-.12-1.36-.35"></path> <path class="cls-2" d="M39.73,18.7l-12.6,7.18"></path> <path class="cls-2" d="M64.61,79.83l-18.98-10.84c-.84-.49-1.36-1.39-1.36-2.36v-24.4"></path> <path class="cls-2" d="M64.61,79.4V40.43"></path> <path class="cls-1" d="M60.47,13.1c-1.5,0-2.71,1.21-2.71,2.71s1.21,2.71,2.71,2.71,2.71-1.21,2.71-2.71-1.21-2.71-2.71-2.71Z"></path> </g> </g> </g> </svg> 