<?xml version="1.0" encoding="UTF-8"?> <!-- Creator: CorelDRAW X7 --> <svg xmlns="http://www.w3.org/2000/svg" xmlns:xlink="http://www.w3.org/1999/xlink" xml:space="preserve" width="50.4828mm" height="41.4693mm" style="shape-rendering:geometricPrecision; text-rendering:geometricPrecision; image-rendering:optimizeQuality; fill-rule:evenodd; clip-rule:evenodd" viewBox="0 0 1401 1151"> <defs> <style type="text/css"> <![CDATA[ .fil1 {fill:#2F68AF} .fil0 {fill:#2F68AF;fill-rule:nonzero} ]]> </style> </defs> <g id="Слой_x0020_1"> <metadata id="CorelCorpID_0Corel-Layer"></metadata> <path class="fil0" d="M233 3l33 0c6,0 10,4 10,10 0,1 0,2 0,2l-41 251c-1,5 -6,9 -11,9l-34 0c-6,0 -11,-5 -11,-10 0,-1 1,-2 1,-3l19 -119 -55 92c-2,3 -5,5 -9,5l0 0 -24 0c-5,0 -9,-3 -10,-8l-25 -90 -21 124c-1,5 -5,9 -10,9l-35 0c-5,0 -10,-5 -10,-10 0,-1 0,-2 0,-3l42 -251c0,-5 5,-8 10,-8l33 0c5,0 9,3 10,8l40 142 89 -145c2,-4 5,-5 9,-5zm1032 275c-6,0 -12,-1 -18,-1 -6,-1 -12,-2 -18,-3l0 0c-5,-1 -11,-3 -16,-5 -5,-2 -10,-4 -15,-6l0 0c-5,-3 -10,-6 -14,-9 -4,-3 -8,-7 -12,-10 -4,-4 -4,-11 0,-15l26 -27c4,-4 11,-4 15,0l0 0c4,3 7,7 12,9l0 1c4,2 8,4 13,6 5,2 10,3 15,4 6,1 11,2 18,2 8,0 16,-1 22,-3 6,-1 12,-3 16,-6 5,-3 8,-6 11,-9 2,-4 4,-8 4,-12l0 -1c1,-3 1,-6 1,-8 -1,-2 -1,-3 -2,-5 -1,-1 -3,-3 -5,-4 -1,-1 -4,-3 -6,-3 -3,-1 -7,-3 -11,-4 -4,-1 -9,-2 -14,-3l-2 0 -3 -1c-8,-1 -16,-3 -23,-4 -7,-2 -13,-4 -18,-6l0 0c-6,-2 -12,-5 -17,-9l0 -1c-5,-4 -9,-9 -12,-14 -4,-6 -6,-14 -7,-22 -1,-8 -1,-17 1,-26l0 -1c1,-9 4,-16 7,-24 3,-7 7,-14 12,-20l1 -1c5,-6 10,-11 16,-16 7,-4 14,-8 22,-12 8,-3 16,-5 25,-7 9,-1 19,-2 29,-2 4,0 9,0 14,1 5,0 9,1 14,2l1 0c4,1 8,3 13,4 4,2 9,4 13,6l0 0c5,2 8,4 12,7 4,3 8,6 12,9 5,3 5,10 2,14l-25 29c-4,4 -10,4 -15,1 -4,-3 -7,-6 -11,-9l-1 0c-3,-2 -7,-4 -11,-5 -4,-2 -8,-3 -12,-4 -4,-1 -8,-1 -12,-1 -8,0 -15,1 -21,2 -6,2 -11,4 -15,7 -4,2 -7,5 -10,9 -2,4 -4,8 -4,13l-1 0c0,3 0,6 0,8 1,2 1,3 2,4 2,2 3,3 5,4 2,2 5,3 7,4 3,1 7,2 12,3 5,2 10,3 16,4l1 0c0,0 0,0 0,0l0 0c1,0 2,0 2,1 1,0 2,0 2,0l1 0c8,2 15,3 21,5 7,2 13,5 18,7 6,2 11,6 15,10 5,4 9,9 12,15 3,6 5,13 6,21 1,7 0,16 -1,25l0 0c-2,9 -4,17 -7,24 -3,7 -8,14 -13,20l0 1c-5,6 -11,11 -18,16 -6,4 -14,8 -22,11 -8,4 -16,6 -26,7 -9,2 -18,3 -29,3zm-216 0c-20,0 -38,-5 -51,-13 -7,-4 -13,-10 -18,-16 -5,-6 -9,-13 -12,-22l0 0c-2,-8 -4,-16 -4,-25 0,-10 0,-20 2,-30l27 -161c0,-5 5,-8 10,-8l35 0c6,0 10,4 10,10 0,1 0,2 0,2l-26 161c-2,9 -2,16 -1,22 1,5 3,10 6,13 2,4 6,6 10,8 5,2 11,3 18,3 7,0 14,-1 20,-3 5,-2 10,-5 15,-9l0 -1c4,-4 8,-9 11,-14 3,-6 5,-14 6,-22l27 -162c1,-5 5,-8 10,-8l36 0c5,0 10,4 10,10 0,1 0,2 0,2l-27 160c-1,11 -4,21 -7,30 -4,9 -8,17 -13,25 -5,8 -11,15 -17,21 -7,5 -14,10 -22,15 -8,4 -17,7 -26,9 -9,2 -19,3 -29,3zm-255 -56l41 0c9,0 16,-1 22,-3 5,-1 10,-3 13,-6l1 0c3,-2 6,-5 8,-9 2,-4 3,-8 4,-13l0 0c1,-4 1,-7 1,-10 0,-3 -1,-5 -1,-7 -1,-2 -2,-4 -3,-5 -1,-1 -2,-3 -4,-4l-1 0c-1,-1 -4,-2 -6,-2 -4,-1 -7,-1 -12,-1l-53 0 -10 60zm18 -113l51 0c5,0 10,0 14,-2 4,-1 7,-2 10,-5l1 0c2,-2 4,-5 6,-8l0 0c2,-4 3,-8 4,-12 1,-5 1,-9 0,-13 -1,-3 -2,-5 -4,-6 -2,-2 -4,-4 -8,-5 -4,-1 -10,-2 -16,-2l-49 0 -9 53zm-9 -106l79 0c9,0 17,0 24,2 8,2 14,4 20,7 6,4 11,8 16,12 4,5 7,11 10,17l0 1c2,6 3,12 4,19 0,7 0,14 -2,22 -1,5 -2,10 -3,14 -2,5 -4,9 -7,14 -3,4 -6,8 -9,12 -4,4 -8,7 -12,10 -2,1 -4,2 -5,3 1,1 2,2 3,3l0 0c4,3 7,7 10,12 3,4 5,9 6,14 2,5 3,10 3,16 0,5 0,11 -1,16l0 1c-2,7 -4,15 -6,21 -3,7 -7,13 -11,19 -5,6 -10,12 -15,16l-1 1c-5,4 -11,8 -18,11l0 0c-7,3 -14,5 -21,7 -8,1 -16,2 -24,2l-102 0c-6,0 -10,-5 -10,-10 0,-1 0,-2 0,-3l41 -251c1,-5 6,-8 11,-8l20 0zm-238 218l33 0c9,0 16,-1 23,-3 6,-2 11,-5 16,-9l0 0c5,-4 9,-9 12,-15 3,-6 5,-12 7,-20l12 -74c1,-7 1,-14 0,-19 -1,-5 -3,-10 -6,-13l0 0c-3,-4 -7,-6 -13,-8 -5,-2 -12,-3 -20,-3l-37 0 -27 164zm12 -218l56 0c11,0 21,1 30,2 9,2 18,5 25,9 8,5 14,10 20,16 5,6 9,13 13,21l0 0c3,8 4,16 5,25 1,9 0,19 -2,29l-11 71c-2,10 -5,20 -8,29 -4,9 -8,17 -14,24 -5,8 -11,14 -18,20 -7,6 -15,11 -24,15 -8,3 -17,6 -27,8 -9,2 -20,3 -30,3l-80 0c-6,0 -10,-5 -10,-10 0,-1 0,-2 0,-3l41 -251c1,-5 5,-8 10,-8l24 0zm-207 275c-10,0 -19,-1 -27,-4 -9,-2 -17,-5 -24,-9l0 0c-7,-5 -13,-10 -18,-17 -5,-6 -9,-13 -11,-21 -3,-8 -5,-17 -6,-26 0,-9 0,-18 2,-28l12 -71c3,-20 10,-38 21,-53 5,-8 11,-15 18,-21 6,-6 14,-11 22,-15l0 -1c8,-4 17,-7 25,-9 9,-2 18,-3 28,-3 9,0 18,1 27,3 8,2 16,6 23,10l0 0c7,5 13,10 18,16 5,7 9,14 12,22 3,8 4,16 5,26 0,8 0,18 -2,28l-12 71c-1,10 -4,20 -7,28 -4,9 -8,17 -13,25 -6,8 -12,15 -18,21 -7,6 -14,11 -22,15l-1 0c-8,4 -16,7 -25,10 -9,2 -18,3 -27,3zm5 -56c5,0 9,0 13,-1 4,-1 7,-3 11,-5 3,-2 7,-4 10,-7 3,-2 5,-6 8,-9l0 0c2,-4 4,-8 6,-12 2,-4 3,-9 4,-14l12 -74c1,-5 1,-9 1,-14 -1,-4 -1,-7 -2,-10l0 -1c-2,-3 -3,-6 -5,-8 -2,-2 -4,-4 -6,-6l0 0c-3,-2 -6,-3 -9,-4 -4,-1 -8,-1 -12,-1 -4,0 -8,0 -12,1 -4,1 -8,2 -12,4 -3,2 -6,5 -9,7 -3,3 -6,6 -8,10l0 0c-3,4 -5,7 -7,12 -1,4 -2,9 -3,14l-12 73c-1,5 -2,10 -1,14 0,4 1,8 2,11l0 0c1,3 2,6 4,9 2,2 4,4 7,6 2,1 5,3 9,4 3,1 7,1 11,1z"></path> <g id="_2131256172064"> <path class="fil1" d="M631 471l0 143c0,15 -12,27 -27,27l0 0c-14,0 -26,-12 -26,-27l0 -143 -60 0 43 -75 43 -75 44 75 43 75 -60 0z"></path> <path class="fil1" d="M824 491l0 -143c0,-15 -13,-27 -27,-27l0 0c-15,0 -27,12 -27,27l0 143 -60 0 43 75 44 75 43 -75 43 -75 -59 0z"></path> </g> <path class="fil1" d="M70 703l1223 0c35,0 64,29 64,64l0 320c0,35 -29,64 -64,64l-1223 0c-35,0 -64,-29 -64,-64l0 -320c0,-35 29,-64 64,-64zm184 215c0,-45 14,-81 42,-110 29,-29 65,-43 110,-43 21,0 40,3 57,10 24,8 35,21 35,38 0,9 -2,17 -7,23 -5,7 -12,10 -21,10 -4,0 -8,-1 -13,-2 -2,-1 -6,-2 -12,-5 -7,-2 -13,-4 -19,-6 -6,-1 -12,-2 -18,-2 -26,0 -46,10 -60,28 -13,17 -19,39 -19,67 0,16 2,30 5,41 4,15 11,27 21,36 7,6 15,11 24,15 9,3 19,5 29,5 5,0 10,-1 15,-1 4,-1 9,-2 13,-4l21 -10c2,-1 5,-2 7,-2 2,-1 4,-1 6,-1 10,0 17,3 23,10 5,6 8,14 8,23 0,7 -2,13 -6,19 -4,6 -10,10 -16,14 -11,7 -23,11 -36,14 -12,3 -25,4 -39,4 -20,0 -38,-3 -56,-10 -18,-7 -33,-17 -47,-30 -17,-16 -29,-36 -37,-60 -7,-21 -10,-45 -10,-71zm469 104l-119 0 -7 27c-3,10 -6,18 -11,24 -6,8 -13,13 -21,13 -10,0 -19,-3 -26,-7 -8,-5 -13,-12 -14,-21 0,-1 0,-3 0,-5 0,-6 1,-12 3,-18l83 -229c5,-12 11,-21 20,-28 9,-8 20,-12 32,-12 13,0 23,4 33,12 9,6 15,16 20,28l83 229c2,6 3,12 3,18 0,1 0,2 0,5 -1,9 -6,16 -14,21 -7,4 -16,7 -26,7 -7,0 -13,-4 -19,-10 -5,-6 -9,-12 -11,-20l-9 -34zm-22 -63l-37 -118 -38 118 75 0zm208 -65l0 152c0,12 -3,21 -9,28 -6,8 -15,12 -26,12 -11,0 -20,-4 -26,-12 -7,-7 -10,-16 -10,-28l0 -242c0,-10 4,-19 10,-26 6,-7 15,-10 25,-10 7,0 12,1 17,4 4,2 8,6 13,11l136 172 0 -148c0,-11 3,-21 9,-28 7,-7 15,-11 27,-11 11,0 19,4 26,11 6,7 9,17 9,28l0 238c0,7 -1,12 -2,17 -1,4 -4,9 -7,13 -7,7 -15,11 -24,11 -6,0 -11,-2 -16,-4 -5,-2 -9,-5 -12,-10l-140 -178z"></path> </g> </svg> 